<?xml version="1.0" standalone="no"?>
<!DOCTYPE svg PUBLIC "-//W3C//DTD SVG 20010904//EN"
 "http://www.w3.org/TR/2001/REC-SVG-20010904/DTD/svg10.dtd">
<svg version="1.0" xmlns="http://www.w3.org/2000/svg"
 width="700.000000pt" height="700.000000pt" viewBox="0 0 700.000000 700.000000"
 preserveAspectRatio="xMidYMid meet">
<metadata>
Created by potrace 1.11, written by Peter Selinger 2001-2013
</metadata>
<g transform="translate(0.000000,700.000000) scale(0.100000,-0.100000)"
fill="#000000" stroke="none">
<path d="M3280 6689 c-143 -25 -151 -27 -236 -55 -370 -124 -684 -398 -854
-744 -38 -78 -98 -255 -114 -337 -9 -43 -18 -91 -22 -108 -3 -16 -8 -196 -10
-399 -2 -203 -6 -371 -9 -374 -3 -3 -87 -6 -187 -7 -259 -3 -356 -33 -487
-151 -100 -91 -172 -223 -188 -347 -3 -28 -6 -731 -6 -1562 0 -1393 2 -1515
17 -1575 29 -108 74 -188 151 -266 77 -78 145 -120 250 -155 l70 -24 1840 0
c2023 0 1874 -5 2015 64 98 47 211 157 257 251 70 142 66 28 66 1720 1 1549 0
1575 -35 1660 -52 128 -154 249 -258 307 -119 66 -166 76 -378 78 -106 1 -194
4 -197 7 -3 3 -7 169 -9 369 -2 200 -7 378 -10 394 -3 17 -10 55 -15 85 -34
204 -135 431 -272 611 -68 90 -205 228 -269 272 -25 17 -47 34 -50 38 -10 13
-147 93 -217 126 -124 58 -254 98 -398 123 -111 19 -335 19 -445 -1z m449
-565 c240 -59 466 -245 585 -481 32 -64 72 -201 82 -280 11 -88 11 -684 0
-691 -18 -10 -1787 -8 -1795 3 -9 13 -7 633 3 697 44 310 259 590 542 708 42
17 88 34 100 36 13 2 36 9 50 14 15 6 66 13 113 17 47 3 87 6 88 7 7 6 176
-16 232 -30z m-46 -2948 c153 -52 283 -167 344 -306 32 -73 35 -81 47 -165 36
-242 -89 -485 -304 -594 -101 -50 -157 -65 -259 -65 -126 0 -174 11 -283 67
-130 67 -230 183 -278 323 -17 50 -34 140 -33 179 5 214 97 386 267 496 61 40
151 78 200 84 15 2 30 6 32 8 3 2 46 3 97 2 69 -2 112 -9 170 -29z"/>
</g>
</svg>
